# xmcd
#
# Track frame offsets:
#	150
#	13485
#	23924
#	34796
#	47521
#	56143
#	66843
#	78043
#	87077
#	99362
#	109067
#	119674
#	129789
#	141414
#	151621
#	161265
#	172309
#	181404
#	190597
#	200064
#	212507
#	225686
#	237725
#	249143
#
# Disc length: 3461 seconds
#
# Revision: 1
# Processed by: cddbd v1.5.2PL0 Copyright (c) Steve Scherf et al.
# Submitted via: audiograbber 1.83.01
#
DISCID=420d8318
DTITLE=Various Artist - Crossroads In Cowtown
DYEAR=2011
DGENRE=Country
TTITLE0=Leon McAuliffe - Take It Away, Leon
TTITLE1=Wade Ray - Idaho Red
TTITLE2=Billy Strange - The Devil In Me
TTITLE3=Rosalie Allen - It'd Surprise You
TTITLE4=Hawkshaw Hawkins - Car Hoppin' Mama
TTITLE5=Pee Wee King And The Golden West Cowboys - I Don't Mind
TTITLE6=Eddy Arnold - Do You Love Me?
TTITLE7=Nita, Rita And Ruby - Rock Love
TTITLE8=Arlie Duff - Lie Detector
TTITLE9=Ginny Right - Boom Boom Boomerang
TTITLE10=Tennessee Ernie Ford - Kiss Me Big
TTITLE11=Spade Cooley - Rhumba Boogie
TTITLE12=Hank Penny - You Played On My Piano
TTITLE13=Billy Strange - Barracuda
TTITLE14=Dick Glasser - Catty Town
TTITLE15=Maddox Brothers And Rose - Stop Whistlin' Wolf
TTITLE16=The Nettles Sisters - Real Gone Jive
TTITLE17=Bob Wills And His Texas Playboys - Cadillac In Model "A"
TTITLE18=Merle Travis - Deep South
TTITLE19=Red Foley - Night Train To Memphis
TTITLE20=Ginny Jackson - Hillbilly Fever
TTITLE21=Hank Penny - Bloodshot Eyes
TTITLE22=Bob Newman - Hangover Boogie
TTITLE23=Lee Bonds - Done Gone Crazy
EXTD=
EXTT0=
EXTT1=
EXTT2=
EXTT3=
EXTT4=
EXTT5=
EXTT6=
EXTT7=
EXTT8=
EXTT9=
EXTT10=
EXTT11=
EXTT12=
EXTT13=
EXTT14=
EXTT15=
EXTT16=
EXTT17=
EXTT18=
EXTT19=
EXTT20=
EXTT21=
EXTT22=
EXTT23=
PLAYORDER=
